<svg width="115" height="115" viewBox="0 0 115 115" fill="none" xmlns="http://www.w3.org/2000/svg">
<g filter="url(#filter0_d)">
<mask id="path-1-outside-1" maskUnits="userSpaceOnUse" x="5" y="2" width="103" height="103" fill="black">
<rect fill="white" x="5" y="2" width="103" height="103"/>
<path fill-rule="evenodd" clip-rule="evenodd" d="M52.3209 53.5635L10 95.8844L14.2426 100.127L56.5635 57.8061L98.8844 100.127L103.127 95.8844L60.8061 53.5635L103.127 11.2426L98.8844 7L56.5635 49.3209L14.2426 7.00002L10 11.2427L52.3209 53.5635Z"/>
</mask>
<path d="M10 95.8844L7.87868 93.763L5.75736 95.8844L7.87868 98.0057L10 95.8844ZM52.3209 53.5635L54.4422 55.6848L56.5635 53.5635L54.4422 51.4422L52.3209 53.5635ZM14.2426 100.127L12.1213 102.248L14.2426 104.37L16.364 102.248L14.2426 100.127ZM56.5635 57.8061L58.6848 55.6848L56.5635 53.5635L54.4422 55.6848L56.5635 57.8061ZM98.8844 100.127L96.763 102.248L98.8844 104.37L101.006 102.248L98.8844 100.127ZM103.127 95.8844L105.248 98.0057L107.37 95.8844L105.248 93.763L103.127 95.8844ZM60.8061 53.5635L58.6848 51.4422L56.5635 53.5635L58.6848 55.6848L60.8061 53.5635ZM103.127 11.2426L105.248 13.364L107.37 11.2426L105.248 9.12132L103.127 11.2426ZM98.8844 7L101.006 4.87868L98.8844 2.75736L96.763 4.87868L98.8844 7ZM56.5635 49.3209L54.4422 51.4422L56.5635 53.5635L58.6848 51.4422L56.5635 49.3209ZM14.2426 7.00002L16.364 4.87869L14.2426 2.75738L12.1213 4.87869L14.2426 7.00002ZM10 11.2427L7.87868 9.12133L5.75736 11.2427L7.87868 13.364L10 11.2427ZM12.1213 98.0057L54.4422 55.6848L50.1995 51.4422L7.87868 93.763L12.1213 98.0057ZM16.364 98.0057L12.1213 93.763L7.87868 98.0057L12.1213 102.248L16.364 98.0057ZM54.4422 55.6848L12.1213 98.0057L16.364 102.248L58.6848 59.9275L54.4422 55.6848ZM101.006 98.0057L58.6848 55.6848L54.4422 59.9275L96.763 102.248L101.006 98.0057ZM101.006 93.7631L96.763 98.0057L101.006 102.248L105.248 98.0057L101.006 93.7631ZM58.6848 55.6848L101.006 98.0057L105.248 93.763L62.9275 51.4422L58.6848 55.6848ZM101.006 9.12132L58.6848 51.4422L62.9275 55.6848L105.248 13.364L101.006 9.12132ZM96.763 9.12132L101.006 13.364L105.248 9.12132L101.006 4.87868L96.763 9.12132ZM58.6848 51.4422L101.006 9.12132L96.763 4.87868L54.4422 47.1995L58.6848 51.4422ZM12.1213 9.12134L54.4422 51.4422L58.6848 47.1995L16.364 4.87869L12.1213 9.12134ZM12.1213 13.364L16.364 9.12134L12.1213 4.87869L7.87868 9.12133L12.1213 13.364ZM54.4422 51.4422L12.1213 9.12133L7.87868 13.364L50.1995 55.6848L54.4422 51.4422Z" fill="#E53D3D" mask="url(#path-1-outside-1)"/>
</g>
<defs>
<filter id="filter0_d" x="0.757385" y="0.757355" width="113.612" height="113.612" filterUnits="userSpaceOnUse" color-interpolation-filters="sRGB">
<feFlood flood-opacity="0" result="BackgroundImageFix"/>
<feColorMatrix in="SourceAlpha" type="matrix" values="0 0 0 0 0 0 0 0 0 0 0 0 0 0 0 0 0 0 127 0"/>
<feOffset dx="1" dy="4"/>
<feGaussianBlur stdDeviation="3"/>
<feColorMatrix type="matrix" values="0 0 0 0 0 0 0 0 0 0 0 0 0 0 0 0 0 0 0.25 0"/>
<feBlend mode="normal" in2="BackgroundImageFix" result="effect1_dropShadow"/>
<feBlend mode="normal" in="SourceGraphic" in2="effect1_dropShadow" result="shape"/>
</filter>
</defs>
</svg>
